<?xml version="1.0" standalone="no"?>
<!DOCTYPE svg PUBLIC "-//W3C//DTD SVG 20010904//EN"
 "http://www.w3.org/TR/2001/REC-SVG-20010904/DTD/svg10.dtd">
<svg version="1.0" xmlns="http://www.w3.org/2000/svg"
 width="540.000000pt" height="540.000000pt" viewBox="0 0 540.000000 540.000000"
 preserveAspectRatio="xMidYMid meet">
<metadata>
Created by potrace 1.14, written by Peter Selinger 2001-2017
</metadata>
<g transform="translate(0.000000,540.000000) scale(0.100000,-0.100000)"
fill="#000000" stroke="none">
<path d="M2202 5018 c-6 -6 -12 -17 -12 -22 0 -6 5 -3 11 7 12 20 49 23 68 5
11 -11 13 -10 9 2 -6 19 -59 25 -76 8z"/>
<path d="M2312 4986 c-22 -50 -30 -85 -11 -53 13 22 55 22 63 1 4 -9 9 -15 12
-12 2 3 -6 30 -19 59 l-24 54 -21 -49z m37 -18 c1 -5 -6 -8 -14 -8 -16 0 -19
9 -8 36 6 16 7 16 14 -2 4 -10 8 -22 8 -26z"/>
<path d="M2392 4978 c3 -44 6 -52 26 -54 12 -2 22 1 22 6 0 6 -8 10 -18 10
-16 0 -18 7 -15 45 3 29 0 45 -7 45 -7 0 -10 -18 -8 -52z"/>
<path d="M2462 4984 c-2 -39 2 -53 14 -58 24 -9 31 -8 48 10 17 16 23 99 7 90
-5 -3 -8 -21 -6 -40 4 -38 -13 -60 -38 -50 -11 4 -17 22 -20 52 l-3 47 -2 -51z"/>
<path d="M2562 4987 c-16 -60 -13 -83 3 -32 l12 40 15 -35 16 -35 14 33 c15
35 28 33 28 -5 0 -12 4 -23 9 -23 6 0 6 13 1 33 -5 17 -10 41 -13 52 -3 15 -8
10 -22 -24 l-18 -44 -17 43 -17 43 -11 -46z"/>
<path d="M2720 4981 c0 -56 7 -65 45 -55 24 6 25 10 21 48 -2 22 -5 44 -5 49
-1 4 -14 7 -31 7 -29 0 -30 -1 -30 -49z m55 24 c0 -5 -9 -11 -21 -13 -13 -2
-21 3 -21 13 0 10 8 15 21 13 12 -2 21 -7 21 -13z m3 -46 c4 -21 -35 -32 -42
-12 -4 8 -3 19 0 24 9 15 38 6 42 -12z"/>
<path d="M2815 5006 c-13 -19 -14 -29 -5 -45 24 -46 75 -47 99 -3 29 54 -61
99 -94 48z m73 2 c34 -34 -6 -90 -48 -68 -20 11 -24 22 -20 50 4 29 46 40 68
18z"/>
<path d="M2934 4980 c5 -27 14 -50 18 -50 4 0 8 4 8 9 0 5 5 22 11 38 l11 28
18 -40 17 -40 12 40 c15 54 13 80 -3 30 l-12 -40 -14 40 -13 40 -18 -39 -17
-40 -7 37 c-4 20 -10 37 -14 37 -4 0 -3 -22 3 -50z"/>
<path d="M3061 4973 c1 -32 4 -46 6 -31 3 20 11 28 31 31 l27 4 -27 2 c-21 1
-28 6 -28 20 0 14 8 21 28 24 25 4 25 4 -5 6 l-33 1 1 -57z"/>
<path d="M3145 4981 c0 -57 12 -69 17 -18 l3 32 20 -32 c10 -18 23 -33 27 -33
4 0 7 24 6 53 -1 46 -2 48 -5 12 l-4 -39 -32 38 -32 37 0 -50z"/>
<path d="M2191 4968 c-1 -18 24 -48 40 -48 18 0 49 20 49 32 0 7 -7 5 -17 -4
-22 -19 -53 -10 -64 18 -6 16 -8 16 -8 2z"/>
<path d="M3080 4930 c0 -5 9 -10 20 -10 11 0 20 5 20 10 0 6 -9 10 -20 10 -11
0 -20 -4 -20 -10z"/>
<path d="M1145 4714 c-22 -8 -62 -20 -90 -26 -27 -6 -90 -30 -141 -53 -50 -23
-106 -48 -125 -54 -19 -6 -54 -27 -79 -46 -25 -19 -67 -50 -95 -69 -81 -54
-158 -143 -199 -228 -20 -43 -41 -80 -45 -83 -5 -2 -14 -26 -21 -52 -7 -27
-21 -64 -30 -83 -13 -26 -18 -65 -19 -155 -3 -147 11 -242 51 -360 60 -175 88
-224 192 -336 l97 -104 -6 -310 c-4 -170 -8 -330 -8 -355 -1 -25 0 -83 2 -130
2 -47 3 -339 2 -650 0 -311 2 -581 5 -601 5 -28 0 -44 -24 -80 -17 -24 -46
-53 -66 -63 -34 -18 -36 -22 -36 -71 0 -43 5 -59 30 -90 16 -20 32 -45 35 -56
4 -10 16 -21 28 -24 218 -48 299 -57 380 -41 29 5 43 15 59 42 17 29 22 32 32
20 6 -8 43 -29 81 -47 91 -41 176 -48 275 -24 78 19 93 33 104 98 6 34 3 41
-35 82 -80 85 -74 51 -76 440 -1 193 -1 523 0 735 1 581 0 749 -8 822 l-8 67
34 5 c19 3 99 8 178 12 128 5 156 10 249 41 57 19 145 57 195 85 197 109 243
153 340 321 31 54 63 104 70 112 8 7 30 59 51 115 50 141 49 186 -10 503 -13
70 -24 129 -24 131 0 3 -6 11 -13 18 -7 7 -28 33 -47 58 -68 89 -133 159 -141
154 -5 -3 -6 1 -3 9 6 16 -94 110 -174 164 -68 45 -187 103 -212 103 -11 0
-40 9 -63 21 -75 36 -127 42 -392 45 -212 3 -267 0 -300 -12z m-145 -1829 c30
-10 80 -23 110 -29 l55 -11 7 -130 c3 -71 11 -164 18 -205 7 -47 11 -208 10
-435 0 -311 2 -368 16 -415 21 -67 23 -199 7 -508 -9 -166 -15 -226 -26 -236
-25 -25 -81 -56 -102 -56 -30 0 -84 37 -94 63 -5 13 -23 30 -40 37 -17 7 -31
15 -32 19 -3 17 -8 250 -9 361 0 69 -4 148 -10 175 -34 177 -41 384 -20 580 6
50 12 175 15 278 3 104 9 196 14 206 13 23 18 258 7 300 -7 28 -7 33 5 29 8
-3 39 -13 69 -23z"/>
<path d="M4969 4654 c-13 -14 -37 -32 -52 -40 -17 -9 -30 -26 -33 -43 -5 -23
-15 -31 -62 -48 -118 -43 -165 -63 -181 -75 -21 -18 -88 -48 -105 -48 -21 0
-26 24 -26 121 l0 89 -59 0 c-35 0 -63 -5 -68 -12 -30 -37 -34 -392 -7 -508
20 -84 62 -170 84 -170 9 0 25 -7 36 -15 10 -8 51 -21 90 -30 68 -16 127 -14
367 8 20 2 23 34 6 70 -9 21 -21 26 -73 32 -33 5 -69 7 -80 6 -42 -6 -193 22
-229 42 -44 24 -49 40 -45 127 l3 65 75 43 c41 23 106 54 143 68 99 38 151 80
155 126 l3 36 56 -5 c47 -5 58 -3 69 12 23 31 17 91 -12 135 -15 22 -28 40
-29 40 -1 0 -12 -12 -26 -26z m22 -41 c0 -5 2 -28 5 -52 3 -36 2 -42 -12 -37
-8 3 -22 6 -30 6 -17 0 -34 61 -21 78 10 13 57 17 58 5z"/>
<path d="M3068 4593 c7 -3 16 -2 19 1 4 3 -2 6 -13 5 -11 0 -14 -3 -6 -6z"/>
<path d="M3218 4593 c12 -2 32 -2 45 0 12 2 2 4 -23 4 -25 0 -35 -2 -22 -4z"/>
<path d="M4005 4314 c11 -11 29 -26 40 -34 20 -15 20 -15 0 9 -11 12 -29 27
-40 33 l-20 10 20 -18z"/>
<path d="M4076 4245 c4 -8 11 -15 16 -15 6 0 5 6 -2 15 -7 8 -14 15 -16 15 -2
0 -1 -7 2 -15z"/>
<path d="M3167 4009 c7 -7 15 -10 18 -7 3 3 -2 9 -12 12 -14 6 -15 5 -6 -5z"/>
<path d="M4657 3742 c-37 -26 -93 -63 -123 -82 -31 -19 -76 -54 -100 -78 -45
-45 -54 -78 -38 -139 9 -33 66 -31 110 2 18 14 36 25 41 25 5 0 24 11 44 24
32 22 47 24 169 27 130 4 135 3 138 -17 3 -21 -8 -53 -30 -89 -26 -42 -119
-155 -127 -155 -5 0 -26 -18 -47 -40 -22 -22 -68 -58 -104 -79 -79 -48 -99
-75 -75 -101 9 -10 34 -21 55 -25 33 -6 49 0 126 44 121 68 171 110 262 219
87 105 128 188 138 280 l6 60 -33 19 c-29 15 -55 17 -167 16 l-132 -2 15 23
c9 13 20 38 25 55 7 26 5 33 -13 46 -35 25 -68 17 -140 -33z"/>
<path d="M4081 3464 c0 -11 3 -14 6 -6 3 7 2 16 -1 19 -3 4 -6 -2 -5 -13z"/>
<path d="M3290 3260 c-6 -11 -8 -20 -6 -20 3 0 10 9 16 20 6 11 8 20 6 20 -3
0 -10 -9 -16 -20z"/>
<path d="M3242 3095 c0 -16 2 -22 5 -12 2 9 2 23 0 30 -3 6 -5 -1 -5 -18z"/>
<path d="M3819 3063 c-13 -16 -12 -17 4 -4 16 13 21 21 13 21 -2 0 -10 -8 -17
-17z"/>
<path d="M3231 3024 c0 -11 3 -14 6 -6 3 7 2 16 -1 19 -3 4 -6 -2 -5 -13z"/>
<path d="M3605 2900 c-3 -6 1 -7 9 -4 18 7 21 14 7 14 -6 0 -13 -4 -16 -10z"/>
<path d="M3468 2843 c7 -3 16 -2 19 1 4 3 -2 6 -13 5 -11 0 -14 -3 -6 -6z"/>
<path d="M4568 2835 c-59 -6 -109 -13 -111 -15 -34 -38 -36 -114 -4 -132 79
-43 446 -41 537 3 63 30 67 89 9 122 -64 36 -206 43 -431 22z"/>
<path d="M3331 2801 c-12 -8 -12 -10 0 -14 8 -2 5 -3 -6 -1 -10 2 -40 -9 -65
-25 -25 -15 -60 -33 -79 -39 -18 -7 -55 -25 -80 -41 -26 -15 -58 -32 -70 -36
-19 -6 -21 -9 -10 -16 10 -7 6 -8 -11 -4 -30 6 -176 -65 -172 -84 1 -7 -2 -10
-7 -7 -5 3 -29 -5 -53 -19 -35 -20 -47 -33 -57 -65 -6 -22 -14 -40 -16 -40 -3
0 -19 15 -36 33 -17 17 -37 31 -45 29 -9 -2 -12 3 -8 13 6 15 -5 20 -35 16 -8
-2 -10 3 -5 11 4 7 3 9 -2 5 -4 -4 -10 -31 -11 -59 -3 -47 -2 -49 13 -33 15
14 15 18 3 26 -15 9 -11 11 33 13 25 2 44 -16 40 -36 -1 -4 5 -5 13 -2 21 8
19 -6 -2 -22 -10 -7 -13 -14 -6 -14 6 0 14 4 18 10 7 11 35 2 35 -12 0 -5 -4
-6 -10 -3 -5 3 -12 -7 -15 -22 -4 -15 -11 -38 -16 -51 -5 -13 -9 -32 -9 -42 0
-11 -4 -20 -8 -20 -5 0 -16 -21 -25 -47 -9 -27 -23 -68 -32 -92 -15 -41 -15
-58 -1 -192 17 -158 52 -346 68 -366 6 -7 15 -10 21 -6 5 3 7 1 4 -4 -4 -6 10
-32 30 -58 34 -45 37 -47 50 -30 7 11 13 14 13 9 0 -6 -5 -15 -12 -22 -9 -9
-8 -16 6 -30 13 -12 16 -13 11 -2 -5 8 -4 11 0 7 5 -4 10 -14 11 -21 2 -16
154 -217 198 -261 16 -16 23 -21 15 -10 -13 18 -13 19 3 6 10 -7 15 -17 12
-23 -10 -16 17 -37 44 -33 15 2 21 2 14 -1 -6 -3 -9 -11 -5 -17 4 -7 -1 -6
-10 2 -24 19 -21 -2 3 -24 37 -34 273 -125 440 -171 l85 -23 65 29 c36 15 76
31 90 35 14 4 39 14 57 22 44 20 220 82 269 95 39 10 43 14 59 67 10 31 24 76
32 101 8 25 23 79 34 120 10 41 26 93 35 115 9 22 20 72 25 110 31 258 32 226
-7 364 -38 138 -87 265 -113 295 -9 11 -10 16 -3 12 9 -5 7 5 -4 36 -10 24
-20 48 -24 53 -3 6 -17 37 -30 70 -21 55 -30 64 -94 107 -74 48 -156 92 -156
83 0 -3 -9 4 -21 16 -11 11 -27 18 -35 15 -8 -3 -12 -1 -9 4 3 5 -18 21 -47
36 -29 15 -70 38 -91 51 -21 13 -42 21 -48 18 -5 -4 -8 -1 -7 7 4 16 -167 107
-202 107 -14 1 -31 -3 -39 -8z m148 -47 c14 -12 -19 -1 -35 12 -18 14 -18 14
6 3 14 -6 27 -13 29 -15z m-204 -14 c-3 -5 -12 -10 -18 -10 -7 0 -6 4 3 10 19
12 23 12 15 0z m251 -36 c1 -9 0 -13 -4 -10 -3 4 -7 14 -8 22 -1 9 0 13 4 10
3 -4 7 -14 8 -22z m-335 1 c-18 -8 -38 -15 -45 -15 -15 1 46 28 64 29 8 0 0
-6 -19 -14z m369 -5 c0 -5 -2 -10 -4 -10 -3 0 -8 5 -11 10 -3 6 -1 10 4 10 6
0 11 -4 11 -10z m-439 -23 c-6 -8 -8 -17 -4 -21 4 -4 0 -4 -10 0 -17 6 -17 7
0 20 23 17 28 18 14 1z m557 -48 c22 -17 22 -18 3 -16 -11 0 -17 5 -14 11 4 5
-1 7 -10 3 -39 -16 -51 -18 -29 -5 12 8 20 17 16 21 -4 4 -14 1 -23 -5 -13
-10 -14 -10 -4 1 9 11 7 18 -10 33 -16 15 -13 14 13 -3 19 -13 45 -31 58 -40z
m-572 5 c18 -14 18 -15 -3 -4 -17 8 -29 8 -45 0 -22 -11 -22 -10 -4 4 11 9 23
16 26 16 3 0 15 -7 26 -16z m-161 -73 c-6 -5 -25 10 -25 20 0 5 6 4 14 -3 8
-7 12 -15 11 -17z m-50 -3 c-25 -15 -47 -19 -39 -7 3 5 9 7 14 4 5 -3 11 -1
15 5 3 5 12 10 18 10 7 0 3 -6 -8 -12z m913 0 c-2 -8 6 -12 17 -11 20 1 20 1
1 -13 -11 -8 -25 -14 -30 -14 -6 0 -5 4 3 9 9 6 10 11 2 15 -14 9 -14 26 -1
26 6 0 9 -6 8 -12z m-1209 -79 c-22 -14 -33 -10 -19 6 7 8 17 12 22 9 6 -4 5
-10 -3 -15z m171 1 c-24 -15 -36 -11 -14 4 10 8 21 12 24 10 2 -3 -2 -9 -10
-14z m1255 -58 c-2 -3 -12 1 -21 9 -9 8 -23 14 -30 14 -8 0 -14 5 -15 10 -1
18 -21 35 -32 28 -6 -3 -7 -1 -3 5 5 8 23 -1 56 -25 27 -20 47 -39 45 -41z
m-1250 38 c-3 -5 -12 -10 -18 -10 -7 0 -6 4 3 10 19 12 23 12 15 0z m540 -149
c3 -5 1 -12 -5 -16 -5 -3 -10 1 -10 9 0 18 6 21 15 7z m786 -58 c-9 -16 -10
-15 -9 9 2 16 6 24 11 19 5 -5 5 -17 -2 -28z m23 -19 c3 -8 2 -12 -4 -9 -6 3
-10 10 -10 16 0 14 7 11 14 -7z m-10 -58 c-6 -15 -24 -23 -24 -11 0 8 24 34
28 30 1 -1 0 -10 -4 -19z m46 -28 c0 -5 -5 -6 -10 -3 -6 4 -17 1 -25 -5 -11
-9 -15 -9 -15 -1 0 6 5 11 10 11 6 0 10 7 10 16 0 14 3 14 15 4 8 -7 15 -17
15 -22z m-1529 -5 c-12 -20 -14 -14 -5 12 4 9 9 14 11 11 3 -2 0 -13 -6 -23z
m1541 -65 c-7 -7 -12 -8 -12 -2 0 14 12 26 19 19 2 -3 -1 -11 -7 -17z m-1560
-17 c7 11 8 9 4 -4 -3 -10 -6 -26 -6 -34 0 -25 -10 -9 -15 23 -2 16 -1 23 2
15 5 -11 7 -11 15 0z m1588 -23 c0 -18 -2 -20 -9 -8 -6 8 -7 18 -5 22 9 14 14
9 14 -14z m-33 -10 c-3 -8 -6 -5 -6 6 -1 11 2 17 5 13 3 -3 4 -12 1 -19z
m-1550 -170 c-3 -8 -6 -5 -6 6 -1 11 2 17 5 13 3 -3 4 -12 1 -19z m183 12 c0
-5 -4 -10 -10 -10 -5 0 -10 5 -10 10 0 6 5 10 10 10 6 0 10 -4 10 -10z m-50
-10 c0 -5 -7 -10 -15 -10 -8 0 -15 5 -15 10 0 6 7 10 15 10 8 0 15 -4 15 -10z
m1507 -22 c-3 -8 -6 -5 -6 6 -1 11 2 17 5 13 3 -3 4 -12 1 -19z m-1449 -118
c12 0 13 -3 5 -11 -8 -8 -17 -7 -35 6 -16 12 -18 16 -5 11 10 -3 26 -6 35 -6z
m952 -10 c0 -5 -2 -10 -4 -10 -3 0 -8 5 -11 10 -3 6 -1 10 4 10 6 0 11 -4 11
-10z m-945 -79 c3 -5 1 -12 -5 -16 -5 -3 -10 1 -10 9 0 18 6 21 15 7z m1432
-103 c-3 -7 -5 -2 -5 12 0 14 2 19 5 13 2 -7 2 -19 0 -25z m-17 -83 c0 -8 -4
-15 -10 -15 -5 0 -7 7 -4 15 4 8 8 15 10 15 2 0 4 -7 4 -15z m-47 -46 c-4 -4
-9 6 -10 24 -1 30 -1 31 8 8 5 -14 6 -28 2 -32z m-1317 -20 c0 -10 -3 -17 -7
-16 -4 1 -7 -1 -8 -5 -3 -22 0 -29 9 -23 6 3 10 0 10 -9 0 -8 6 -17 13 -19 8
-4 8 -6 0 -6 -6 -1 -21 11 -32 25 -16 20 -18 30 -10 40 6 7 8 17 5 22 -3 5 0
9 7 9 7 0 13 -8 13 -18z m994 17 c0 -3 -4 -8 -10 -11 -5 -3 -10 -1 -10 4 0 6
5 11 10 11 6 0 10 -2 10 -4z m331 -76 l-7 -35 -5 32 c-3 18 -2 30 3 27 4 -3 8
0 8 7 0 7 2 10 4 8 3 -2 1 -20 -3 -39z m-18 -35 c5 -28 4 -34 -3 -20 -8 19
-14 73 -6 64 2 -2 6 -22 9 -44z m-1231 -57 c-13 -13 -24 5 -16 27 7 16 8 16
17 0 6 -11 6 -20 -1 -27z m1219 -15 c-12 -20 -14 -14 -5 12 4 9 9 14 11 11 3
-2 0 -13 -6 -23z m-25 -69 c-1 -20 -8 -39 -15 -43 -7 -4 -11 -12 -10 -17 3
-18 -3 -49 -7 -37 -5 12 -34 6 -44 -8 -3 -4 -19 -10 -35 -14 -23 -5 -19 -1 16
16 46 23 104 99 81 107 -12 4 -5 32 9 32 4 0 7 -16 5 -36z m-1019 -77 c0 -8
-6 -14 -14 -14 -9 0 -10 4 -2 14 6 7 12 13 14 13 1 0 2 -6 2 -13z m950 7 c-3
-3 -12 -4 -19 -1 -8 3 -5 6 6 6 11 1 17 -2 13 -5z m-953 -43 c4 -5 -3 -7 -14
-4 -23 6 -26 13 -6 13 8 0 17 -4 20 -9z m124 -40 c11 -7 10 -9 -3 -14 -11 -5
-14 -3 -9 5 5 8 2 9 -10 5 -10 -4 -15 -3 -11 3 7 12 16 12 33 1z m689 -7 c-3
-3 -12 -4 -19 -1 -8 3 -5 6 6 6 11 1 17 -2 13 -5z m-633 -33 c-2 -3 -12 3 -22
13 -16 17 -16 18 5 5 12 -7 20 -15 17 -18z m586 19 c-8 -5 -19 -10 -25 -10 -5
0 -3 5 5 10 8 5 20 10 25 10 6 0 3 -5 -5 -10z m-205 -80 c-3 -5 -12 -10 -18
-10 -7 0 -6 4 3 10 19 12 23 12 15 0z m-158 -6 c-3 -3 -12 -4 -19 -1 -8 3 -5
6 6 6 11 1 17 -2 13 -5z"/>
<path d="M2063 2573 c-29 -7 -74 -28 -100 -45 -26 -18 -88 -53 -137 -78 -67
-34 -94 -54 -110 -80 -11 -20 -45 -72 -73 -115 -57 -86 -66 -108 -31 -75 20
18 32 24 49 22 4 -1 5 12 3 27 -2 17 3 34 11 41 8 7 13 16 10 20 -3 5 -1 11 5
15 5 3 10 2 10 -3 0 -6 6 -12 14 -15 10 -4 12 5 11 36 -3 48 1 60 18 50 6 -4
23 -7 37 -7 22 -1 25 -6 28 -43 2 -26 -1 -43 -7 -43 -14 0 -14 -67 -1 -75 6
-4 10 10 10 33 0 42 13 52 71 52 15 0 29 7 33 15 10 27 -5 45 -38 45 -17 0
-40 7 -50 15 -11 8 -31 15 -45 16 -23 1 -21 2 9 11 19 6 29 13 23 15 -7 3 -26
-2 -43 -10 -16 -9 -30 -12 -30 -8 0 4 48 31 108 61 59 30 113 60 120 67 14 14
72 18 72 6 -1 -28 -60 -63 -107 -63 -21 0 -45 -5 -53 -10 -10 -6 2 -8 38 -5
51 5 52 5 52 -22 0 -22 -2 -25 -11 -13 -8 12 -9 8 -6 -15 2 -16 2 -24 0 -17
-3 6 -11 12 -19 12 -11 0 -13 -9 -8 -40 11 -65 -5 -230 -22 -230 -10 0 -14
-12 -14 -40 0 -29 4 -40 15 -40 11 0 15 11 15 40 0 36 3 40 25 40 23 0 25 4
25 40 0 29 4 40 15 40 11 0 15 11 15 40 l0 40 41 0 41 0 -4 40 -4 40 43 0 c39
0 43 -2 43 -25 0 -22 4 -25 40 -25 l40 0 0 -40 0 -40 40 0 40 0 0 40 0 40 40
0 40 0 0 40 0 40 40 0 c40 0 40 0 40 39 0 24 5 41 14 44 8 3 16 16 18 29 2 18
9 22 28 20 24 -3 24 -2 5 12 -15 11 -43 15 -105 14 l-85 -2 85 -6 c47 -3 77
-7 67 -8 -11 -1 -21 -11 -24 -22 -4 -16 -14 -20 -44 -20 -50 0 -55 27 -6 33
17 3 1 3 -38 1 -48 -3 -65 -1 -55 6 12 8 11 10 -8 10 -13 0 -21 -3 -19 -7 3
-5 -25 -9 -61 -10 -40 -1 -61 1 -53 6 11 7 10 11 -5 19 -20 10 -68 10 -149 -1
l-50 -7 45 16 c33 11 65 14 120 9 41 -3 89 -6 105 -6 26 -1 27 -2 10 -9 l-20
-9 20 1 c11 0 34 3 50 7 23 5 7 10 -70 19 -55 7 -109 14 -120 16 -11 1 -43 -4
-72 -11z m111 -35 c-3 -5 -22 -6 -42 -3 -26 4 -31 3 -17 -4 15 -6 10 -8 -22
-7 -48 1 -58 13 -15 19 46 6 101 3 96 -5z m-128 -123 c-20 -17 -27 -31 -23
-45 4 -17 0 -20 -23 -20 -23 0 -27 4 -23 20 3 10 14 22 24 25 10 4 19 15 19
26 0 14 7 19 28 19 l27 0 -29 -25z m274 9 c0 -14 -3 -14 -15 -4 -8 7 -15 14
-15 16 0 2 7 4 15 4 8 0 15 -7 15 -16z m-267 -44 c-3 -12 -8 -19 -11 -16 -5 6
5 36 12 36 2 0 2 -9 -1 -20z m-337 -67 c-10 -10 -19 5 -10 18 6 11 8 11 12 0
2 -7 1 -15 -2 -18z m-72 -92 c3 -5 -1 -11 -9 -14 -9 -4 -12 -1 -8 9 6 16 10
17 17 5z"/>
<path d="M2230 2540 c8 -5 20 -10 25 -10 6 0 3 5 -5 10 -8 5 -19 10 -25 10 -5
0 -3 -5 5 -10z"/>
<path d="M4625 2520 c-259 -8 -316 -31 -319 -128 -1 -34 3 -39 39 -57 33 -17
65 -21 185 -23 80 -2 168 0 196 5 27 5 99 6 159 2 122 -7 139 -3 190 50 24 26
29 39 26 69 -4 51 -13 58 -84 71 -92 16 -181 18 -392 11z"/>
<path d="M1950 2489 c-25 -13 -29 -18 -15 -18 19 0 63 25 54 32 -2 2 -20 -5
-39 -14z"/>
<path d="M2647 2369 c7 -7 15 -10 18 -7 3 3 -2 9 -12 12 -14 6 -15 5 -6 -5z"/>
<path d="M1737 2339 c4 -13 8 -18 11 -10 2 7 -1 18 -6 23 -8 8 -9 4 -5 -13z"/>
<path d="M1730 2301 c0 -5 6 -12 13 -14 10 -4 10 -6 0 -6 -20 -1 -17 -81 2
-81 11 0 15 11 15 39 0 22 -3 46 -6 55 -7 17 -24 22 -24 7z"/>
<path d="M2606 2242 c-30 -43 -36 -67 -7 -31 21 27 44 69 38 69 -2 0 -16 -17
-31 -38z"/>
<path d="M2245 2191 c-17 -16 5 -22 81 -20 60 1 82 5 75 12 -11 11 -147 18
-156 8z"/>
<path d="M2525 2190 c-3 -6 1 -7 9 -4 9 3 16 1 16 -5 0 -10 -14 -15 -33 -12
-5 1 -6 -3 -2 -9 8 -13 -7 -13 -23 0 -9 7 -9 7 -2 -2 13 -16 13 -31 0 -23 -6
4 -9 1 -8 -6 2 -7 -4 -13 -12 -14 -8 0 -15 -6 -15 -12 0 -7 -4 -13 -10 -14 -5
0 -15 -5 -22 -10 -6 -6 -13 -6 -15 -2 -3 4 -3 2 -1 -5 2 -8 0 -19 -4 -25 -4
-6 -8 -23 -9 -37 -3 -24 -2 -24 14 5 9 17 15 36 13 44 -1 7 2 10 9 6 5 -3 34
18 63 48 28 30 59 57 67 60 13 5 13 7 0 16 -19 13 -27 14 -35 1z"/>
<path d="M1655 2178 c-26 -15 -36 -31 -26 -41 10 -10 54 29 49 43 -2 5 -12 4
-23 -2z"/>
<path d="M1555 2137 c-19 -30 -39 -87 -32 -94 12 -11 28 10 22 28 -4 12 2 34
14 54 23 39 20 48 -4 12z"/>
<path d="M1582 2133 c-10 -4 -9 -8 4 -18 17 -12 17 -14 0 -40 -10 -15 -15 -30
-11 -33 3 -4 10 -1 14 7 11 17 21 -9 21 -55 0 -27 4 -34 20 -34 17 0 20 7 20
40 0 34 3 40 21 40 19 0 20 -4 14 -92 -7 -89 -6 -94 15 -106 20 -12 25 -11 43
7 12 11 18 24 14 27 -4 4 -14 -1 -21 -12 -21 -28 -33 -7 -28 49 3 37 8 47 22
47 15 0 19 12 25 76 4 41 5 78 2 81 -3 2 -42 5 -86 5 -44 0 -78 4 -75 9 6 10
5 10 -14 2z"/>
<path d="M2416 2108 c3 -5 10 -6 15 -3 13 9 11 12 -6 12 -8 0 -12 -4 -9 -9z"/>
<path d="M1557 2103 c-12 -11 -8 -23 8 -23 8 0 15 7 15 15 0 16 -12 20 -23 8z"/>
<path d="M4628 2042 c-26 -2 -44 -11 -57 -28 -18 -23 -19 -28 -6 -65 8 -23 20
-70 26 -105 9 -51 17 -69 35 -81 23 -15 26 -14 40 3 42 54 46 72 36 166 -6 53
-15 95 -23 102 -8 6 -31 10 -51 8z"/>
<path d="M2330 2026 c4 -4 16 -4 26 2 16 9 14 10 -8 9 -15 -1 -23 -6 -18 -11z"/>
<path d="M1501 1988 c-13 -37 -14 -315 -1 -323 4 -3 5 60 3 139 -4 95 -2 154
6 176 6 18 9 35 7 37 -2 2 -9 -11 -15 -29z"/>
<path d="M1566 1989 c-13 -18 -12 -23 2 -40 24 -28 32 -23 32 21 0 44 -11 51
-34 19z"/>
<path d="M2329 1983 c-11 -15 -11 -16 1 -5 27 24 31 16 21 -37 -1 -2 -9 3 -18
10 -17 13 -17 12 -4 -4 13 -16 13 -20 1 -27 -8 -5 -12 -12 -8 -15 4 -4 19 12
34 35 23 34 25 43 13 51 -20 12 -25 11 -40 -8z"/>
<path d="M2080 1975 c0 -11 11 -15 40 -15 29 0 40 4 40 15 0 11 -11 15 -40 15
-29 0 -40 -4 -40 -15z"/>
<path d="M1840 1945 c0 -11 11 -15 40 -15 29 0 40 4 40 15 0 11 -11 15 -40 15
-29 0 -40 -4 -40 -15z"/>
<path d="M4925 1938 c-53 -18 -59 -24 -92 -87 -49 -95 -97 -155 -164 -202
-169 -121 -217 -158 -222 -173 -4 -10 0 -33 8 -52 l15 -35 72 7 c74 7 110 20
161 62 16 12 33 22 38 22 5 0 27 18 49 40 23 23 45 38 49 35 5 -2 21 12 37 33
15 20 38 47 50 60 25 26 84 196 84 240 -1 32 -21 62 -41 61 -8 -1 -27 -6 -44
-11z"/>
<path d="M4396 1918 c-14 -44 -15 -86 -2 -97 7 -6 21 -31 30 -55 21 -55 56
-80 97 -71 27 6 30 10 26 38 -4 36 -14 59 -60 137 -25 42 -39 56 -60 58 -16 2
-29 -2 -31 -10z"/>
<path d="M1535 1889 c6 -30 22 -46 34 -33 6 5 1 18 -14 32 l-24 23 4 -22z"/>
<path d="M2275 1870 c-3 -5 -13 -7 -23 -4 -13 5 -14 4 -4 -4 11 -7 9 -13 -10
-28 -13 -11 -27 -27 -31 -37 -4 -10 -11 -15 -17 -12 -6 4 -8 11 -5 16 4 5 2 9
-3 9 -6 0 -13 -7 -16 -16 -3 -8 -2 -12 3 -9 19 11 19 -12 1 -42 -14 -23 -24
-30 -44 -28 -16 2 -24 -1 -20 -7 4 -6 0 -14 -7 -19 -12 -8 -12 -10 1 -18 19
-13 29 -4 86 80 26 39 63 83 83 100 19 16 30 29 24 29 -7 0 -14 -4 -18 -10z
m-135 -166 c0 -3 -7 -12 -15 -20 -16 -17 -18 -14 -9 10 6 15 24 23 24 10z"/>
<path d="M2165 1860 c3 -5 8 -10 11 -10 2 0 4 5 4 10 0 6 -5 10 -11 10 -5 0
-7 -4 -4 -10z"/>
<path d="M1515 1800 c-4 -17 -4 -34 -1 -37 3 -4 6 3 6 15 0 11 6 22 13 25 9 3
9 7 1 17 -9 9 -14 5 -19 -20z"/>
<path d="M1586 1821 c-4 -7 -5 -15 -2 -18 9 -9 19 4 14 18 -4 11 -6 11 -12 0z"/>
<path d="M1730 1766 c0 -19 5 -38 10 -41 6 -4 10 10 10 34 0 23 -4 41 -10 41
-5 0 -10 -15 -10 -34z"/>
<path d="M1603 1680 c0 -25 2 -35 4 -22 2 12 2 32 0 45 -2 12 -4 2 -4 -23z"/>
<path d="M1671 1683 c-1 -36 -4 -43 -21 -43 -17 0 -20 -7 -20 -41 0 -24 4 -38
10 -34 6 4 10 -12 10 -39 0 -25 -4 -46 -10 -46 -15 0 -12 -87 3 -93 9 -4 9 -8
-2 -15 -11 -8 -8 -10 11 -9 22 2 24 5 20 46 -6 75 2 91 48 91 22 0 40 5 40 10
0 6 -18 10 -40 10 -29 0 -40 4 -40 15 0 11 12 15 43 16 23 1 33 4 22 6 -17 3
-20 10 -17 43 3 25 0 40 -7 40 -6 0 -11 -17 -11 -40 0 -35 -3 -40 -23 -40 -23
0 -24 1 -15 57 5 31 7 69 5 83 -2 15 -5 8 -6 -17z"/>
<path d="M2028 1675 c-3 -42 -2 -45 22 -44 14 0 19 3 13 6 -8 2 -13 22 -13 44
0 54 -17 49 -22 -6z"/>
<path d="M1504 1635 c-3 -8 -4 -20 -2 -27 3 -7 7 -1 10 15 6 29 1 36 -8 12z"/>
<path d="M1931 1634 c0 -11 3 -14 6 -6 3 7 2 16 -1 19 -3 4 -6 -2 -5 -13z"/>
<path d="M2082 1629 c-7 -11 -18 -19 -25 -16 -14 4 -51 -28 -44 -40 3 -5 -10
-26 -29 -48 -19 -22 -34 -43 -34 -47 0 -4 -10 -5 -21 -3 -12 3 -19 1 -15 -2
16 -17 37 -9 61 23 15 19 34 42 44 52 41 40 93 102 85 102 -5 0 -15 -9 -22
-21z m-38 -44 c-7 -16 -24 -21 -24 -6 0 8 7 13 27 20 1 1 0 -6 -3 -14z"/>
<path d="M1515 1535 c10 -78 19 -87 12 -12 -3 32 -8 62 -12 65 -4 4 -4 -20 0
-53z"/>
<path d="M1561 1544 c0 -11 3 -14 6 -6 3 7 2 16 -1 19 -3 4 -6 -2 -5 -13z"/>
<path d="M1926 1547 c3 -10 9 -15 12 -12 3 3 0 11 -7 18 -10 9 -11 8 -5 -6z"/>
<path d="M1952 1529 c-19 -30 -11 -32 11 -3 10 13 14 24 10 24 -5 0 -14 -9
-21 -21z"/>
<path d="M1847 1463 c-10 -9 -9 -23 2 -23 5 0 11 7 15 15 5 15 -5 20 -17 8z"/>
<path d="M1531 1450 c-2 -33 141 -162 167 -152 9 3 13 1 9 -5 -11 -17 21 -39
35 -25 9 9 7 12 -9 12 -16 0 -21 5 -18 20 3 17 1 18 -14 11 -14 -8 -25 -3 -49
19 -17 15 -37 30 -44 33 -10 4 -10 8 2 17 13 10 13 11 -1 7 -17 -6 -61 34 -72
63 -5 13 -6 13 -6 0z"/>
<path d="M1904 1445 c17 -13 17 -15 3 -21 -10 -3 -17 -10 -17 -16 0 -11 -26
-39 -32 -33 -2 2 -4 -5 -4 -16 0 -18 3 -17 20 7 11 15 31 39 43 52 24 26 30
37 14 27 -5 -3 -12 -1 -16 5 -3 5 -12 10 -18 10 -7 0 -3 -7 7 -15z"/>
<path d="M1850 1410 c0 -5 5 -10 11 -10 5 0 7 5 4 10 -3 6 -8 10 -11 10 -2 0
-4 -4 -4 -10z"/>
<path d="M4723 1361 c-23 -9 -52 -26 -65 -38 -13 -11 -36 -28 -53 -36 -30 -15
-97 -76 -125 -113 -8 -11 -25 -27 -37 -36 -13 -8 -34 -36 -48 -61 -28 -54 -21
-86 22 -106 20 -9 36 -6 93 18 38 16 86 42 107 58 67 53 100 60 163 35 8 -3
37 -10 65 -16 65 -14 78 -44 44 -98 -13 -21 -29 -37 -35 -38 -6 0 -24 -18 -39
-40 -15 -22 -32 -40 -37 -40 -5 0 -24 -15 -42 -34 -39 -38 -109 -87 -169 -117
-60 -30 -87 -58 -87 -90 0 -26 24 -43 70 -50 39 -6 130 30 254 101 72 41 190
183 257 309 37 70 47 100 52 157 l7 70 -48 12 c-26 7 -92 15 -146 17 -55 3
-104 9 -109 14 -6 6 -1 20 12 36 15 20 19 35 15 54 -14 55 -43 63 -121 32z"/>
<path d="M1724 1349 c1 -7 9 -13 18 -15 11 -1 15 3 11 13 -4 11 -8 12 -13 3
-6 -9 -9 -9 -13 -1 -4 8 -5 8 -3 0z"/>
<path d="M1743 1303 c0 -9 4 -10 14 -2 7 6 13 12 13 14 0 1 -6 2 -13 2 -8 0
-14 -6 -14 -14z"/>
<path d="M1810 1310 c0 -5 -6 -7 -13 -4 -8 3 -20 -2 -27 -11 -7 -8 -9 -15 -4
-15 4 0 0 -6 -11 -13 -10 -8 -14 -17 -8 -20 5 -3 27 12 48 33 22 22 34 40 27
40 -7 0 -12 -4 -12 -10z m-15 -20 c-3 -5 -11 -10 -16 -10 -6 0 -7 5 -4 10 3 6
11 10 16 10 6 0 7 -4 4 -10z"/>
<path d="M5061 594 c0 -6 -28 -14 -60 -18 -86 -10 -135 -54 -97 -85 13 -11 13
-17 0 -46 -8 -19 -14 -47 -14 -62 0 -16 -9 -36 -21 -46 -14 -13 -19 -27 -17
-50 3 -31 8 -35 77 -67 32 -14 34 -36 7 -63 -33 -33 -33 -52 0 -74 29 -18 47
-12 72 25 13 19 11 23 -13 48 -14 14 -25 28 -23 30 2 2 21 -1 43 -7 51 -14
116 -4 160 27 20 13 42 24 50 24 23 0 55 37 55 63 0 13 -9 32 -20 42 -11 10
-20 30 -20 44 -1 14 -7 43 -14 64 -8 20 -10 40 -5 42 27 18 -74 85 -128 85
-12 0 -24 8 -26 18 -3 9 -5 12 -6 6z m70 -44 c20 -6 49 -20 64 -32 24 -19 25
-22 11 -37 -24 -23 -208 -29 -259 -8 -43 19 -56 42 -34 64 32 32 129 38 218
13z m-40 -98 l118 4 11 -29 c5 -17 10 -42 10 -56 0 -15 8 -31 20 -39 11 -7 20
-22 20 -34 0 -24 -27 -58 -46 -58 -7 0 -29 -11 -48 -24 -66 -44 -170 -43 -229
4 -14 11 -32 20 -40 20 -42 0 -63 68 -29 92 12 8 21 30 24 60 7 61 23 82 51
67 13 -7 64 -10 138 -7z m-131 -304 c0 -10 3 -9 9 1 12 19 31 5 31 -24 0 -42
-60 -57 -74 -19 -7 18 10 54 24 54 6 0 10 -6 10 -12z"/>
<path d="M4970 361 c0 -5 -8 -11 -17 -13 -26 -5 -27 -69 -2 -75 13 -4 19 -15
20 -37 1 -20 3 -24 6 -10 2 11 17 28 32 37 23 13 28 23 27 49 -1 22 -7 34 -19
36 -9 2 -17 8 -17 13 0 5 -7 9 -15 9 -8 0 -15 -4 -15 -9z m25 -10 c3 -5 1 -12
-5 -16 -5 -3 -10 1 -10 9 0 18 6 21 15 7z m-30 -21 c3 -5 -1 -10 -10 -10 -9 0
-13 5 -10 10 3 6 8 10 10 10 2 0 7 -4 10 -10z m65 0 c0 -5 -7 -10 -16 -10 -8
0 -12 5 -9 10 3 6 10 10 16 10 5 0 9 -4 9 -10z m0 -42 c0 -12 -13 -9 -32 6
-26 19 -22 26 7 13 14 -7 25 -15 25 -19z m-65 2 c-3 -5 -10 -10 -16 -10 -5 0
-9 5 -9 10 0 6 7 10 16 10 8 0 12 -4 9 -10z m30 -9 c3 -5 1 -12 -5 -16 -5 -3
-10 1 -10 9 0 18 6 21 15 7z"/>
<path d="M5106 351 c-3 -5 10 -9 29 -8 19 1 35 5 35 9 0 11 -57 10 -64 -1z"/>
<path d="M5112 308 c6 -18 28 -21 28 -4 0 9 -7 16 -16 16 -9 0 -14 -5 -12 -12z"/>
<path d="M5040 239 c-19 -5 -14 -7 23 -8 26 -1 47 1 47 3 0 8 -46 12 -70 5z"/>
<path d="M2410 251 c0 -28 5 -51 10 -51 6 0 10 9 10 19 0 13 8 21 23 23 16 2
22 10 22 28 0 21 -5 26 -32 28 l-33 3 0 -50z m58 16 c2 -12 -3 -17 -17 -17
-15 0 -21 6 -21 21 0 25 33 22 38 -4z"/>
<path d="M2503 250 c0 -30 2 -43 4 -27 2 15 2 39 0 55 -2 15 -4 2 -4 -28z"/>
<path d="M2532 250 c0 -39 2 -48 7 -30 l7 25 12 -22 c7 -13 18 -23 24 -23 6 0
3 9 -8 21 -17 19 -18 22 -2 50 20 34 10 40 -11 7 l-15 -23 -7 25 c-5 18 -7 9
-7 -30z"/>
<path d="M2600 261 c0 -23 7 -46 16 -55 19 -19 25 -20 46 -3 16 12 30 97 16
97 -5 0 -8 -20 -8 -45 0 -41 -2 -45 -25 -45 -26 0 -28 4 -27 58 1 17 -3 32 -8
32 -6 0 -10 -18 -10 -39z"/>
<path d="M2766 292 c-3 -5 -3 -22 0 -38 l4 -29 -30 35 c-16 19 -30 31 -31 25
0 -5 -2 -19 -3 -31 -1 -11 1 -29 5 -40 6 -14 8 -11 8 16 l1 34 30 -34 29 -35
1 53 c0 50 -3 61 -14 44z"/>
<path d="M2803 250 c0 -30 2 -43 4 -27 2 15 2 39 0 55 -2 15 -4 2 -4 -28z"/>
<path d="M2832 250 c0 -27 4 -50 10 -50 6 0 8 7 4 15 -3 8 -1 15 5 15 5 0 12
-7 15 -15 4 -8 10 -15 15 -15 5 0 2 11 -6 24 -15 23 -15 27 0 53 l17 28 -20
-22 c-25 -28 -32 -29 -25 -3 3 11 1 20 -5 20 -6 0 -11 -21 -10 -50z"/>
<path d="M2912 258 c-2 -38 2 -49 17 -58 25 -13 27 -13 45 6 9 9 16 32 16 56
0 51 -10 45 -12 -6 -1 -38 -24 -61 -45 -48 -7 4 -13 28 -16 52 l-4 45 -1 -47z"/>
</g>
</svg>
